{"title":"Gladiator 20mastered Ext Cut BluRay 720p DTS x264-HDLi","uid":10429269,"size":9628958483,"categoryP":"video","categoryS":"hd___movies","magnet":"?xt=urn:btih:c921207eb88dd2fa7be3aaf0b10dcfbf1fbd2506&amp;dn=Gladiator+20mastered+Ext+Cut+BluRay+720p+DTS+x264-HDLi&amp;tr=udp%3A%2F%2Ftracker.openbittorrent.com%3A80&amp;tr=udp%3A%2F%2Fopen.demonii.com%3A1337&amp;tr=udp%3A%2F%2Ftracker.coppersurfer.tk%3A6969&amp;tr=udp%3A%2F%2Fexodus.desync.com%3A6969","seeders":1,"leechers":0,"uploader":"HDLi","files":1,"time":1403743290,"description":"General  \nComplete name : Gladiator 2000 Remastered Extended Cut BluRay 720p DTS x264-HDLi \nFormat : Matroska \nFormat version : Version 4 / Version 2 \nFile size : 8.97 GiB \nDuration : 2h 50mn \nOverall bit rate : 7 510 Kbps \nEncoded date : UTC 2014-06-26 10:24:11 \nWriting application : mkvmerge v7.0.0 ('Where We Going') 32bit built on Jun 9 2014 15:08:34 \nWriting library : libebml v1.3.0 + libmatroska v1.4.1 \n_STATISTICS_WRITING_APP : mkvmerge v7.0.0 ('Where We Going') 32bit built on Jun 9 2014 15:08:34 \n_STATISTICS_WRITING_DATE_UTC : 2014-06-26 10:24:11 \n_STATISTICS_TAGS : BPS DURATION NUMBER_OF_FRAMES NUMBER_OF_BYTES \nDURATION : 02:45:12.686000000 \nNUMBER_OF_FRAMES : 1321 \nNUMBER_OF_BYTES : 44324 \n\nVideo \nID : 1 \nFormat : AVC \nFormat/Info : Advanced Video Codec \nFormat profile : &lt;a class=&quot;__cf_email__&quot; href=&quot;/cdn-cgi/l/email-protection&quot; data-cfemail=&quot;90d8f9f7f8d0dca4bea1&quot;&gt;[email&amp;#160;protected]&lt;/a&gt;&lt;script cf-hash='f9e31' type=&quot;text/javascript&quot;&gt;\n/* &lt;![CDATA[ */!function(){try{var t=&quot;currentScript&quot;in document?document.currentScript:function(){for(var t=document.getElementsByTagName(&quot;script&quot;),e=t.length;e--;)if(t[e].getAttribute(&quot;cf-hash&quot;))return t[e]}();if(t&amp;&amp;t.previousSibling){var e,r,n,i,c=t.previousSibling,a=c.getAttribute(&quot;data-cfemail&quot;);if(a){for(e=&quot;&quot;,r=parseInt(a.substr(0,2),16),n=2;a.length-n;n+=2)i=parseInt(a.substr(n,2),16)^r,e+=String.fromCharCode(i);e=document.createTextNode(e),c.parentNode.replaceChild(e,c)}}}catch(u){}}();/* ]]&gt; */&lt;/script&gt; \nFormat settings, CABAC : Yes \nFormat settings, ReFrames : 10 frames \nCodec ID : V_MPEG4/ISO/AVC \nDuration : 2h 50mn \nBit rate : 6 000 Kbps \nWidth : 1 280 pixels \nHeight : 544 pixels \nDisplay aspect ratio : 2.35:1 \nFrame rate mode : Constant \nFrame rate : 23.976 fps \nColor space : YUV \nChroma subsampling : 4:2:0 \nBit depth : 8 bits \nScan type : Progressive \nBits/(Pixel*Frame) : 0.359 \nStream size : 6.99 GiB (78%) \nWriting library : x264 core 142 r2409 d6b4e63 \nEncoding settings : cabac=1 / ref=10 / deblock=1:-3:-3 / analyse=0x3:0x113 / me=umh / subme=9 / psy=1 / psy_rd=1.00:0.00 / mixed_ref=1 / me_range=24 / chroma_me=1 / trellis=1 / 8x8dct=1 / cqm=0 / deadzone=21,11 / fast_pskip=0 / chroma_qp_offset=-2 / threads=3 / lookahead_threads=1 / sliced_threads=0 / nr=0 / decimate=0 / interlaced=0 / bluray_compat=0 / constrained_intra=0 / bframes=8 / b_pyramid=2 / b_adapt=2 / b_bias=0 / direct=1 / weightb=1 / open_gop=0 / weightp=2 / keyint=240 / keyint_min=23 / scenecut=40 / intra_refresh=0 / rc_lookahead=40 / rc=2pass / mbtree=1 / bitrate=6000 / ratetol=1.0 / qcomp=0.60 / qpmin=0 / qpmax=69 / qpstep=4 / cplxblur=20.0 / qblur=0.5 / ip_ratio=1.40 / aq=1:1.00 \nLanguage : English \nDefault : Yes \nForced : No \n_STATISTICS_WRITING_APP : mkvmerge v7.0.0 ('Where We Going') 32bit built on Jun 9 2014 15:08:34 \n_STATISTICS_WRITING_DATE_UTC : 2014-06-26 10:24:11 \n_STATISTICS_TAGS : BPS DURATION NUMBER_OF_FRAMES NUMBER_OF_BYTES \nDURATION : 02:50:56.914000000 \nNUMBER_OF_FRAMES : 245920 \nNUMBER_OF_BYTES : 7691061818 \n\nAudio \nID : 2 \nFormat : DTS \nFormat/Info : Digital Theater Systems \nMode : 16 \nFormat settings, Endianness : Big \nCodec ID : A_DTS \nDuration : 2h 50mn \nBit rate mode : Constant \nBit rate : 1 509 Kbps \nChannel(s) : 6 channels \nChannel positions : Front: L C R, Side: L R, LFE \nSampling rate : 48.0 KHz \nBit depth : 24 bits \nCompression mode : Lossy \nStream size : 1.80 GiB (20%) \nLanguage : English \nDefault : Yes \nForced : No \n\nText #1 \nID : 3 \nFormat : UTF-8 \nCodec ID : S_TEXT/UTF8 \nCodec ID/Info : UTF-8 Plain Text \nLanguage : English \nDefault : Yes \nForced : No \n\nText #2 \nID : 4 \nFormat : UTF-8 \nCodec ID : S_TEXT/UTF8 \nCodec ID/Info : UTF-8 Plain Text \nLanguage : Romanian \nDefault : No \nForced : No \n\n","torrent":{"xt":"urn:btih:c921207eb88dd2fa7be3aaf0b10dcfbf1fbd2506","amp;dn":"Gladiator+20mastered+Ext+Cut+BluRay+720p+DTS+x264-HDLi","amp;tr":["udp%3A%2F%2Ftracker.openbittorrent.com%3A80","udp%3A%2F%2Fopen.demonii.com%3A1337","udp%3A%2F%2Ftracker.coppersurfer.tk%3A6969","udp%3A%2F%2Fexodus.desync.com%3A6969"],"infoHash":"c921207eb88dd2fa7be3aaf0b10dcfbf1fbd2506","infoHashBuffer":{"type":"Buffer","data":[201,33,32,126,184,141,210,250,123,227,170,240,177,13,207,191,31,189,37,6]},"announce":[],"urlList":[]}}